<?xml version="1.0" encoding="iso-8859-1"?>
<!-- Generator: Adobe Illustrator 19.0.0, SVG Export Plug-In . SVG Version: 6.00 Build 0)  -->
<svg version="1.1" id="Capa_1" xmlns="http://www.w3.org/2000/svg" xmlns:xlink="http://www.w3.org/1999/xlink" x="0px" y="0px"
	 viewBox="0 0 512 512" style="enable-background:new 0 0 512 512;" xml:space="preserve">
<g>
	<path style="fill:#EF6A87;" d="M133.584,228.366l1.724-14.508c6.771-56.887,55.016-99.729,112.313-99.729h85.599
		c18.409,0,34.294,12.9,38.079,30.909l2.744,13.036"/>
	<path style="fill:#EF6A87;" d="M314.351,356.816v4.952c0,5.309-1.177,10.335-3.28,14.845
		c-5.593,12.006-17.767,20.322-31.887,20.322h-60.504l11.554-26.294l8.106-18.451L314.351,356.816z"/>
</g>
<path style="fill:#FFE563;" d="M512,302.337c-37.942,22.677-82.592,39.309-131.384,47.919c-4.636,0.831-9.325,1.577-14.035,2.25
	c-0.736,0.105-1.461,0.21-2.197,0.305c-4.689,0.652-9.409,1.22-14.151,1.724c-15.255,1.588-30.835,2.418-46.679,2.418
	c-78.839,0-151.285-20.438-208.446-54.616c12.784-43.546,38.836-81.425,73.488-108.938c37.059-29.437,83.959-47.015,134.958-47.015
	c27.776,0,54.322,5.215,78.734,14.719c4.079,1.587,8.095,3.291,12.048,5.109c1.083,0.505,2.166,1.009,3.238,1.524
	c3.858,1.861,7.664,3.827,11.396,5.908c46.584,25.905,82.634,68.462,100.139,119.609C510.139,296.249,511.106,299.277,512,302.337z"
	/>
<path style="fill:#DD578F;" d="M314.351,356.816v4.952c0,5.309-1.177,10.335-3.28,14.845c-2.492,0.053-5.004,0.074-7.517,0.074
	c-25.19,0-49.728-2.082-73.319-6.045l8.106-18.451L314.351,356.816z"/>
<path style="fill:#FFC745;" d="M511.998,302.338c-57.171,34.179-129.618,54.616-208.446,54.616
	c-78.839,0-151.286-20.438-208.446-54.616c12.784-43.546,38.836-81.425,73.488-108.938
	c-23.928,72.951,92.905,139.752,196.124,122.227c56.698-9.62,108.875-17.357,144.389-22.372
	C510.137,296.25,511.104,299.278,511.998,302.338z"/>
<circle style="fill:#FFFFFF;" cx="425.628" cy="248.901" r="26.082"/>
<path style="fill:#393B85;" d="M425.622,259.411c-4.399,0-8.403-2.836-9.89-6.971c-1.46-4.064-0.212-8.762,3.089-11.554
	c3.45-2.92,8.508-3.283,12.348-0.908c3.683,2.277,5.616,6.735,4.766,10.982C434.964,255.812,430.57,259.411,425.622,259.411z"/>
<g>
	<path style="fill:#FFC745;" d="M321.708,330.519c-14.008,0-25.405-11.397-25.405-25.406c0-6.786,2.675-12.96,7.025-17.521
		c-4.35-4.562-7.025-10.734-7.025-17.521c0-6.787,2.675-12.96,7.025-17.521c-4.35-4.562-7.025-10.734-7.025-17.521
		s2.675-12.96,7.025-17.521c-4.35-4.562-7.025-10.735-7.025-17.521c0-14.009,11.397-25.406,25.405-25.406
		c4.356,0,7.885,3.53,7.885,7.885s-3.529,7.885-7.885,7.885c-5.313,0-9.635,4.323-9.635,9.636c0,5.313,4.322,9.636,9.635,9.636
		c4.356,0,7.885,3.53,7.885,7.885s-3.529,7.885-7.885,7.885c-5.313,0-9.635,4.323-9.635,9.636c0,5.313,4.322,9.636,9.635,9.636
		c4.356,0,7.885,3.53,7.885,7.885c0,4.355-3.529,7.885-7.885,7.885c-5.313,0-9.635,4.323-9.635,9.636s4.322,9.636,9.635,9.636
		c4.356,0,7.885,3.53,7.885,7.885s-3.529,7.885-7.885,7.885c-5.313,0-9.635,4.323-9.635,9.636s4.322,9.636,9.635,9.636
		c4.356,0,7.885,3.53,7.885,7.885S326.063,330.519,321.708,330.519z"/>
	<path style="fill:#FFC745;" d="M273.729,323.512c-14.009,0-25.406-11.397-25.406-25.406c0-6.786,2.674-12.96,7.025-17.521
		c-4.35-4.562-7.025-10.735-7.025-17.521c0-6.786,2.674-12.96,7.025-17.521c-4.35-4.562-7.025-10.735-7.025-17.521
		c0-14.009,11.397-25.406,25.406-25.406c4.356,0,7.885,3.53,7.885,7.885s-3.529,7.885-7.885,7.885c-5.313,0-9.636,4.323-9.636,9.636
		c0,5.313,4.323,9.636,9.636,9.636c4.356,0,7.885,3.53,7.885,7.885s-3.529,7.885-7.885,7.885c-5.313,0-9.636,4.323-9.636,9.636
		c0,5.313,4.323,9.636,9.636,9.636c4.356,0,7.885,3.53,7.885,7.885s-3.529,7.885-7.885,7.885c-5.313,0-9.636,4.323-9.636,9.636
		s4.323,9.636,9.636,9.636c4.356,0,7.885,3.53,7.885,7.885S278.084,323.512,273.729,323.512z"/>
	<path style="fill:#FFC745;" d="M225.957,312.998c-14.009,0-25.406-11.397-25.406-25.406c0-6.786,2.674-12.96,7.025-17.521
		c-4.35-4.562-7.025-10.735-7.025-17.521c0-6.786,2.674-12.96,7.025-17.521c-4.35-4.562-7.025-10.735-7.025-17.521
		c0-14.009,11.397-25.406,25.406-25.406c4.355,0,7.885,3.53,7.885,7.885s-3.53,7.885-7.885,7.885c-5.313,0-9.636,4.323-9.636,9.636
		c0,5.313,4.323,9.636,9.636,9.636c4.355,0,7.885,3.53,7.885,7.885s-3.53,7.885-7.885,7.885c-5.313,0-9.636,4.323-9.636,9.636
		s4.323,9.636,9.636,9.636c4.355,0,7.885,3.53,7.885,7.885s-3.53,7.885-7.885,7.885c-5.313,0-9.636,4.323-9.636,9.636
		c0,5.313,4.323,9.636,9.636,9.636c4.355,0,7.885,3.53,7.885,7.885C233.842,309.468,230.312,312.998,225.957,312.998z"/>
	<path style="fill:#FFC745;" d="M184.877,312.998c-14.009,0-25.406-11.397-25.406-25.406c0-6.786,2.674-12.96,7.025-17.521
		c-4.35-4.562-7.025-10.735-7.025-17.521c0-14.009,11.397-25.406,25.406-25.406c4.355,0,7.885,3.53,7.885,7.885
		s-3.53,7.885-7.885,7.885c-5.313,0-9.636,4.323-9.636,9.636s4.323,9.636,9.636,9.636c4.355,0,7.885,3.53,7.885,7.885
		s-3.53,7.885-7.885,7.885c-5.313,0-9.636,4.323-9.636,9.636c0,5.313,4.323,9.636,9.636,9.636c4.355,0,7.885,3.53,7.885,7.885
		C192.762,309.468,189.232,312.998,184.877,312.998z"/>
	<path style="fill:#FFC745;" d="M408.97,173.644c-3.732-2.082-7.538-4.048-11.396-5.908c-1.072-0.515-2.155-1.02-3.238-1.524
		c-26.725,32.223-42.81,73.572-42.81,118.61c0,23.981,4.563,46.921,12.858,67.989c0.736-0.095,1.461-0.2,2.197-0.305
		c4.71-0.673,9.399-1.419,14.035-2.25c-8.442-20.154-13.099-42.263-13.099-65.434C367.517,242.369,383.15,203.481,408.97,173.644z"
		/>
</g>
<g>
	<path style="fill:#EF6A87;" d="M0,235.863h29.547c36.578,0,66.23,29.653,66.23,66.23l0,0H66.23C29.653,302.093,0,272.441,0,235.863
		L0,235.863z"/>
	<path style="fill:#EF6A87;" d="M29.547,397.87v-29.547c0-36.578,29.653-66.23,66.23-66.23l0,0v29.547
		C95.777,368.218,66.125,397.87,29.547,397.87L29.547,397.87z"/>
</g>
<g>
</g>
<g>
</g>
<g>
</g>
<g>
</g>
<g>
</g>
<g>
</g>
<g>
</g>
<g>
</g>
<g>
</g>
<g>
</g>
<g>
</g>
<g>
</g>
<g>
</g>
<g>
</g>
<g>
</g>
</svg>
