<?xml version="1.0" encoding="iso-8859-1"?>
<!-- Generator: Adobe Illustrator 19.0.0, SVG Export Plug-In . SVG Version: 6.00 Build 0)  -->
<svg version="1.1" id="Capa_1" xmlns="http://www.w3.org/2000/svg" xmlns:xlink="http://www.w3.org/1999/xlink" x="0px" y="0px"
	 viewBox="0 0 479.965 479.965" style="enable-background:new 0 0 479.965 479.965;" xml:space="preserve">
<g>
	<path style="fill:#F98C96;" d="M7.969,376.01l87.998-87.998l96.003,96.003l-87.998,87.998L7.969,376.01z"/>
	<path style="fill:#F98C96;" d="M183.969,264.012l80-80l32.001,32.001l-80,80L183.969,264.012z"/>
</g>
<g>
	<path style="fill:#E9686A;" d="M191.966,384.01l-96-96l88-24l32,32L191.966,384.01z"/>
	<path style="fill:#E9686A;" d="M263.971,184.007l24.002-24.002l32.001,32.001l-24.002,24.002L263.971,184.007z"/>
	<path style="fill:#E9686A;" d="M31.965,352.013l40-40l96.003,96.003l-40,40L31.965,352.013z"/>
</g>
<g>
	<path style="fill:#FCF05A;" d="M303.966,144.01c-4.418,0.004-8.003-3.575-8.006-7.994c-0.002-2.651,1.31-5.132,3.502-6.622
		c24.693-17.853,33.485-50.575,21.064-78.4c-1.644-4.105,0.351-8.764,4.456-10.408c4.105-1.644,8.764,0.351,10.408,4.456l0,0
		c14.85,34.841,3.668,75.321-26.96,97.6C307.113,143.536,305.558,144.012,303.966,144.01L303.966,144.01z"/>
	<path style="fill:#FCF05A;" d="M343.966,184.01c-4.418-0.005-7.996-3.591-7.991-8.009c0.002-1.59,0.478-3.144,1.367-4.463
		c22.286-30.618,62.758-41.798,97.6-26.96c4.105,1.644,6.1,6.303,4.456,10.408c-1.644,4.105-6.303,6.1-10.408,4.456l0,0
		c-27.804-12.61-60.645-3.797-78.4,21.04C349.105,182.685,346.623,184.007,343.966,184.01L343.966,184.01z"/>
	<path style="fill:#FCF05A;" d="M336.134,151.914c-4.418-0.001-7.999-3.583-7.999-8.001c0-2.304,0.994-4.496,2.727-6.015
		c6.832-5.992,25.448-24.224,29.512-36.416c1.396-4.197,5.931-6.468,10.128-5.072c4.197,1.396,6.468,5.931,5.072,10.128
		c-6.168,18.496-31.304,40.896-34.152,43.392C339.959,151.213,338.08,151.918,336.134,151.914L336.134,151.914z"/>
</g>
<path style="fill:#E97424;" d="M415.971,32.006l24.002-24.002l32.001,32.001l-24.002,24.002L415.971,32.006z"/>
<path style="fill:#FDBD40;" d="M399.97,64.01l24.002-24.002l15.998,15.998l-24.002,24.002L399.97,64.01z"/>
<g>
	<path style="fill:#FCF05A;" d="M408.126,112.01c-4.418,0.022-8.018-3.542-8.04-7.96c-0.022-4.418,3.542-8.018,7.96-8.04h0.08
		c4.418,0,8,3.582,8,8S412.545,112.01,408.126,112.01z"/>
	<path style="fill:#FCF05A;" d="M272.126,120.01c-4.418,0.022-8.018-3.542-8.04-7.96c-0.022-4.418,3.542-8.018,7.96-8.04h0.08
		c4.418,0,8,3.582,8,8C280.126,116.429,276.545,120.01,272.126,120.01z"/>
	<path style="fill:#FCF05A;" d="M376.126,200.01c-4.418,0.022-8.018-3.542-8.04-7.96c-0.022-4.418,3.542-8.018,7.96-8.04h0.08
		c4.418,0,8,3.582,8,8S380.545,200.01,376.126,200.01z"/>
</g>
<path d="M179.814,256.81l-85.952,23.44c-0.193,0.07-0.383,0.15-0.568,0.24c-0.221,0.079-0.437,0.17-0.648,0.272
	c-0.854,0.37-1.634,0.891-2.304,1.536l-88,88c-3.123,3.124-3.123,8.188,0,11.312l96,96c3.124,3.123,8.188,3.123,11.312,0l88-88
	c0.645-0.67,1.166-1.45,1.536-2.304c0.102-0.211,0.193-0.427,0.272-0.648c0.09-0.185,0.17-0.375,0.24-0.568l23.464-85.928
	l102.456-102.496c3.123-3.124,3.123-8.188,0-11.312l-32-32c-3.124-3.123-8.188-3.123-11.312,0L179.814,256.81z M103.966,460.698
	L19.278,376.01l12.688-12.688l84.688,84.688L103.966,460.698z M127.966,436.698L43.278,352.01l28.688-28.688l84.688,84.688
	L127.966,436.698z M167.966,396.698L83.278,312.01l12.688-12.688l84.688,84.688L167.966,396.698z M187.878,368.602l-76.504-76.504
	l70.192-19.144l25.456,25.456L187.878,368.602z M215.966,284.698l-20.688-20.688l68.688-68.688l20.688,20.688L215.966,284.698z
	 M287.966,171.322l20.688,20.688l-12.688,12.688l-20.688-20.688L287.966,171.322z"/>
<path d="M299.47,129.394c-3.619,2.535-4.497,7.524-1.962,11.142c2.478,3.537,7.316,4.469,10.93,2.106
	c30.628-22.279,41.81-62.759,26.96-97.6c-1.644-4.105-6.303-6.1-10.408-4.456s-6.1,6.303-4.456,10.408
	C332.955,78.819,324.163,111.541,299.47,129.394L299.47,129.394z"/>
<path d="M337.334,171.538c-2.531,3.622-1.647,8.609,1.975,11.14c3.622,2.531,8.609,1.647,11.14-1.975
	c0.051-0.073,0.101-0.146,0.149-0.221c17.755-24.837,50.596-33.65,78.4-21.04c4.105,1.644,8.764-0.351,10.408-4.456
	c1.644-4.105-0.351-8.764-4.456-10.408C400.104,129.732,359.622,140.913,337.334,171.538L337.334,171.538z"/>
<path d="M370.494,96.418c-4.192-1.397-8.722,0.869-10.119,5.061c0,0.001-0.001,0.002-0.001,0.003
	c-4.064,12.192-22.68,30.4-29.512,36.416c-3.479,2.723-4.092,7.751-1.368,11.231s7.751,4.092,11.231,1.368
	c0.238-0.187,0.466-0.387,0.682-0.599c2.848-2.496,28-24.896,34.152-43.392C376.935,102.323,374.671,97.814,370.494,96.418
	L370.494,96.418z"/>
<path d="M445.622,2.354c-3.124-3.123-8.188-3.123-11.312,0l-24,24c-3.123,3.124-3.123,8.188,0,11.312l2.344,2.344l-24,24
	l27.312,27.312l24-24l2.344,2.344c3.124,3.123,8.188,3.123,11.312,0l24-24c3.123-3.124,3.123-8.188,0-11.312L445.622,2.354z
	 M415.966,68.698l-4.688-4.688l12.688-12.688l4.688,4.688L415.966,68.698z M447.966,52.698L427.278,32.01l12.688-12.688
	l20.688,20.688L447.966,52.698z"/>
<path d="M416.126,104.01c0-4.418-3.582-8-8-8h-0.08c-4.418,0.044-7.964,3.662-7.92,8.08c0.044,4.418,3.662,7.964,8.08,7.92
	C412.593,111.966,416.126,108.397,416.126,104.01z"/>
<path d="M280.126,112.01c0-4.418-3.582-8-8-8h-0.08c-4.418,0.044-7.964,3.662-7.92,8.08c0.044,4.418,3.662,7.964,8.08,7.92
	C276.593,119.966,280.126,116.397,280.126,112.01z"/>
<path d="M384.126,192.01c0-4.418-3.582-8-8-8h-0.08c-4.418,0.044-7.964,3.662-7.92,8.08c0.044,4.418,3.662,7.964,8.08,7.92
	C380.593,199.966,384.126,196.397,384.126,192.01z"/>
<g>
</g>
<g>
</g>
<g>
</g>
<g>
</g>
<g>
</g>
<g>
</g>
<g>
</g>
<g>
</g>
<g>
</g>
<g>
</g>
<g>
</g>
<g>
</g>
<g>
</g>
<g>
</g>
<g>
</g>
</svg>
